P1
64 64
0000000000000100000000000000000000000001000000000000000000000000
0000000001010000000000100010000000001000110000000000000000000010
0001000010000000000000000000000000000000000000000000000000000000
0000000000000000000000000000000000000000000000000000000000000000
0000000001000000000000000000000000000000000000000000000000000000
0000000000000000000000000001001000000000000000000000000000000010
0000000001111000000000000000000100000000000000000000000000000000
0000000011111111000000100000000000000000000000000000000000000000
0000010111111111100000000010000000000000000000000000000000000000
0000001111111111100000000000000000000000000000000000000000000000
0000011101000111100000000001000000000000000000000000000000000000
0000011010000001000000000000000000000010000000000000000001001000
0000011110010000000010000001000000000000010000000000000000000000
0000011100000000000000000000000000000000000001000000000000000000
0000011100000000001000000000000000000000010000000000000010000000
0100111100000000000000100100000000000000000000000000000000000000
0001111100000000000000000000000000000000001000000000000000000000
0000111100010000000000000000000000001000000000000000000100000000
0010011100000001000000000000001000000000000000000010000000000000
0000011110000001000000000000000100000000000000000000000000000000
0000011110010000000000000000000000000000000000000000010100000000
0100011110000000000000000000000000000000000000000000010100000000
0000001111000010000000000000000000000000000000000000011100000010
0000001111000000000000000000000000100000000000000000111110000000
0000000111100000000000000000000000000000000000000011111111000100
0000000111110000000000000000000000000000000000000111011111100000
0100000011111111111110111111111100000000000000001111111101110000
0000100001111111111111011111111111111110000001111111111111101000
0000000001111111111111110111011111111111011111111111111111111100
0000000001111111111111111111111111111111111111110111111111111100
0000000001111111101111111111111111111111111111111111111111111000
0000000001111111111111111111111011111111110111111111111111111010
0000000011111111110111110111111111111111011111111111111100000000
0000000011111111111111111110111111100111111111111111111010000000
0000000011111111111111111111111111111011111111111111110000000000
0000000011011111111111111111111111011111111111111111110000000000
0000000011111111111111111111111111011111111111111111100000000000
0000000011111111111111111111011110111111111111111111100000000000
0000000011111111111011110111111111111111111111101111100000000000
0000000011111111011111111110111101111111111111111111100000000000
0000000111111111101111111111111111111110111111111111100000000000
0000001111111111111111110111111111111100111011111111100010000000
0000111011111111111111111111111111111111111111111111100000000000
0101111111111111110111111111110111111111111111111111100000000000
0011111111111111111111111100000000111111111111111111110000000000
0111111111110111111110000000100000111111001000111111110000000000
0011111110000111111110000000000000111111000001011011110000000000
0011110000000111111100001000010000111010000000001111111000000000
0111100001000111111000000000000001110110000000001111111000000100
0101000000000111111010110000001000111100000000000111111100000000
0111000000000111110000000000000000111100010000000011111110000000
1111000000000111100000000000000001111000000000000101111111000000
1110000000000111111000000000000001011000000000100000001110100000
1111000000000011110000000000000001110000000000000000001111110000
1110000000000001111000000000000001110000000000000000000011111000
0110000001000100111100000000000001111000000000000000000001111111
0000000000000000011111000000000001111000000000000000000000111111
0000000000000000001111000000000000000000010000000000000000000000
0000000000000000000000000000000000000000010000000000000000000000
0000000001000000000000000000000000000000100000000000000000000000
0000000000000000000000000000000000000000000000000000000000000100
0000000000000000000000001000000000000000000000000000000000000000
0000000000001000010100010000000000000000000000000100000000000000
0000000000000000010010000000010000000000000000000000000000000000
