P1
64 64
0000000000000100010000000010000000100101010000000100000000100001
0000010000000001001001000010010000000100111000000100000000001000
0000000001000000011000000000001110000001010000011000100100100000
0000001000001100000000100010100000001100001000000000000000000100
1010010001000011000101001100100000000001100000101100001010000000
0000000000110010001001000001000000000100100011011000000100101010
0000000101111100000010001000000100000100001000000100000001100001
0010000011101010010000011101000000010000010000000000000000000000
0000101011111111100000000010010000000000000010000000000000000000
0001001110111010100000000000010000010100000000001010000100001100
0000011101000111100100010001011000000000100100000111010000001000
0000011010000001000000000001010100000010001111000000100000000000
0100111100000000001010010001100000011000000000000100000000100010
1100011100010001000000000000010001100000001000000011100011010001
0110011110000000001010000100001010000000010000100000000010011001
1001111110000001000000000000000100001101001000000001000011000101
0000011100000000000111000000100000000000011000101000010000000000
0100111110010000001011000000000000001000010100000000000100101000
0000000100010000000000110011001010000110001000000100000000010010
0000001110000001001000000110000000000000010000000001000001000000
0010011111101011000001000000000100000000000000000000110100000000
0010011110110001000000100100001100101010011000010000011010000000
0001001111000010101001010000000000000000000000000010011100000010
1001101101010000100001000110001110010000100000110000111110101000
1000001111000000100000000000000000000000100000000011110111010100
0000010111100000000000010010000001000000000000000001101111100000
1100000011111111011110011111111100010000000100000111111111010100
1000100001111101100111101011111111111111000001110111111110011100
0001010001100111110111110110101111011111011011111111111101011100
0100000000111101010111111001111111011111100011110111110111111100
0010001001111011111101111111111111111111111111111101111110111000
0001100000111001101111111111101000101111110111111111111111011000
0000000111111011110011110111111111111110011101111111111100000100
0000100011111111111111001110010011101000101011111101111010100000
0000100011111011111111111111100111111001111101111011100000000001
0001000011011111101101111011111110011111111111111111110001000000
0000000011011111111011111011111111010111110111101110100101000000
0000000011010101111111111111011111111111111111001101100000001000
0010100011100111111111111111011100111111101111111110100000000110
0000000001111110110111111110100101011110111111101110100011000010
0000000110110101101101101110110101101110110111101111110010000000
0100001100111111101101100101001110111101111101110011100010100100
0011110011101111101111111111101011111011110111010111000000000000
1101011011111111111111101110111111111111011101011110100000010001
0001110110111101101011101100010000111111011111100111110000000100
0111101011100111001111000000100001111111001011111111110100000000
0011111011010110111111100000000000111110001001011111110100100101
0111110000000111111100001000010001110111000001001011111010000000
0101100001010111101010101000100101100100000000001111110100001000
0101000000000110111011100100001000111100000100001101101100000110
0111100101010010010000000000010001111000011011000011110110000111
1111100000111011110001000010000101111000000000000101111110000000
0111110000000111111000000000000001011100000010100000001110000000
1110000101000011100000000000011000110000000100000000011000010000
1110000000000011111000000000000000111000000000000001000011111000
0100001001000100001111001001001001111010000000000000000000111111
0000001000000011001010000000100001111000001100001010001000010011
0000000000001001101011000000000011001000010100000000000000100000
0110000000011000000000001000110010011010110000001000010000000000
0010000000011001100001000000000011000010000010000101101000001000
0000000101100001100010000000011100001000000001001010000001000000
0001000000000000000001100000000001000101000000000000000000000000
0000100001001010000000000010000000110010001010000100001000000000
0001100011001100010010000000011000000000000011100001000000000010
