P1
64 64
0000000000000000000000000000000000000000000000000000000000000000
0000000000000000000000000000000000000000000001000000000000000000
0000000000000000000000000000000000000000000000000000000000000000
0000000000100000000000000000000000000000000000000000000000000000
0000000000000000000000000000000000000000000000000000000000000000
0000000000000000000000000000000000000000000000000000000000000000
0000000001111000000000000000000000000000000000000000000000000000
0000000011111110000000000000000000000000000000000000000000000000
0000000111111111100000000000000000000010000000000000000000000000
0000001111111111100000000000000000000000000000000000000000000000
0000011111000111100000000000000000000000000000000000000000000000
0000011110000000000000000000000000000000000000000000000000000000
0000111110000000000000000000000000000000000000000000000000000000
0000011100000000000000000000000000000000000000000000000000000000
0000111100000000000000000000000000100000000000000000000000000000
0000111100000000000000000000000000000000000000000000000000000000
0000111100000000000000000000000000000000000000000000000000000000
0000111100000000000000000000000000000000000000000000000000000000
0000011100000000000000000000000000000000000000000000000000000000
0000011110000000000000000000000000000000000000000000000000000000
0000011111000000000000000000000000000000000000000000000100000000
0000011110000000000000000000000000000000000000000000001100000000
0000001111000000000000000000000000000000000000000000011100000000
0000001111000000000000000000000000000000000000000000111110000000
0000000111100000000000000000000000000000000000000011111111000000
0000000111110000000000000000000000000000000000000111111111100000
0000000011111111111111111111111100000000000000001111111111110000
0000000001111111111111111111111111111110000001111111111111111000
0000000001111111111111111111111111111111111111111111111111111100
0000000000111111111111111111111111111111111111111111111111111100
0000000001111111111111111111111111111111111111111111111110111000
0000000001111111111111111111111111111111111111111111111111111000
0000000011111111111111111111111111111111111111111111111100000000
0000000011111111111111111111111111111111111111111111111000000000
0000000011111111111111111111111111111111111111111111110000000000
0000000011111111111111111111111111111111111111111111010000000000
0000000011111111111111111111111111111111111111111111100000000000
0000000011111111111111111111111111111111111111111111100000000000
0000000011111111111111111111111111111111111111111111100000000000
0000000011111111111111111111111111111111111111111111100000000000
0000000111111111111111111111111111111111111111111111100000000000
0000001111111111111111111111111111111111111111111111100000000000
0000111111111111111111111111111111111111111111111111100000000000
0001111111111111111111111111111111111111111111111111100000000000
0011111111111111111111111100000000111111111111111111110000000000
0011111111110111111110000000000000111111000000111111110000000000
0011111110000111111110000000000000111111000000011111110000000000
0011110000000111111100000000000000111110000000001111111000000000
0111100000000111111000000000000000111110000000001111111000000000
0111000000000111111000000000000000111100000000000111111100000000
0111000000000111110000000000000000111100000000000011111110000000
1111000000000111100000000000000001111000000000000001111111000000
0110000000000111110000000000000001111000000000000000011111100000
1110000000000011110000000000000001110000000000000000001111110000
1110000000000001111000000000000001110000000000000000000111111000
0110000001000000111100000000000001111000000000000000000001111111
0000000000000000011111000000000001111000000000000000000000111111
0000000000000000001111000000000000000000000000000000000000000000
0000000000000000000000000000000000000000000000000000000000000000
0000000000000000000000000000000000000000000000000000000000000000
0000000000000000000000000000000000000000000000000000000000000000
0000000000000000000000000000000000000000000000000000000000000000
0000000000000000000000000000000000000000000000000000000000000000
0000000000000000000000000000000000000000000000000000000000000000
