P1
64 64
0000000000000100000000000000000000000001000000000000000000000000
0000000000001000000000000010000000000000000000000000000000000000
0000000000000000010000000000000000000000000000000000000000000100
0000000000000000000000000000000000000000000000000000000000010000
0010010000000000000000001100000000000000000000000110000010000000
0000000000000000000000000100000000000000000001000000000100000000
0000000001111000000000000000000100000100000000000000000000000000
0000000011111110000000000000000000000000000000000000000000000000
0000000111111111100000000000000000000000000000000000000000000000
0000001111111111100000000000000000010000000000000000000000000000
0000011111000111100000000000000000000001000100000000000000000000
0000010110000000000000000001000000000000000000000000000000000000
0000111110000000000010000000000000000000000000000000000000000000
0000011100000000000000000000000001000000000000000001100000000000
0000111100000000001000000000000000000000000000000000000000000000
0001011100000000000000000000000000001000000000000000100001000000
0000111100000000100010000000000000000000010000000000000000000000
0100111100000000000001000001000000000000000000000000000000000000
0000011100000000000000010010000010000010000000000000000000010000
0000011110000000000000000000000000000000001000000000000000000000
0000011111000000000000000000000000000000000100000000000100000000
0000011110010000000000000000000000000000000000000000001100000000
1001001111001000000000000000000000000000000000000000011100000000
0000001111000000000000000000000000000000000000000000111110100000
0000000111100000000000000000000000000000010000000011110111000000
0000000111110000000000000000000000000000000000000111111111100000
1000000011111111111111011111111110000000000000001111111111110000
0010000001111111110111111111111111111110000001111111111101111000
0000000001111111111111111111111111111011111111111111111111111100
0000000010111111111111111111111111111111111111110110111110111100
0010000001110101111101111111111011111111111110111111111111111000
0000000001111111101111111111011111111111111111111111111111111000
0000000011111111111111111111111111111111011101111011111100000000
0000000011111111111111101110111111111111111111111111111000000000
0000000011111111111111111111101111111111111111111111110000000000
0000000011111111111111111111111110111111111111111111010000000001
0000000010111111111111111111111111011111111101111111100101000100
1000000011111111111111111111111111111111111111011111100010000000
0000100011111111111111111111111111111111111111111111100000000000
0000000011111110111111111111111111111111111111111111100000000000
0000000111111111111111111110111111111111111111111111100000000000
0000001111111111111111111111111111111111111111111011100010001000
0000111111111011011111111111111111111111111111111111100000000000
1001111111111111111111111111111111111111111111111111100000000000
0011111110111101111111111100000000111111111111101111110000000100
0011111111110111101110000000000001111111000000111011110000000000
0011111110000011111110000000000000111111100000011011110100100000
0011110000000111111100000000000000111110000000001111111010000000
0111100000000111101000000000000101111110000000001111111100000000
0111010100000111111000000000000000111100000000000111111100000000
0111000000100111110000000000000000111100000000000011110110000000
1111000000000111100000000000000101111000000000000001111111000000
0111000000000111110000100000000001111000000000000000011111000000
1110000000000011110000000000000001110000000000000000001011110000
1110000000000001111000000000000001110000100000000000000011111000
0110000001000000111101000000000001111000000000000000000001111111
0000001000000000001011000001000001111000001000000000001000111011
0000000000000001001111000000000000000000000000000000000100000000
0000000000000000000000000000001000001000100000000000000000000000
0000000000000000000000000000000010000010000000001000000000000000
0001000000001000000000000000000100000000000000000000000000000000
0000000010000000000000000000000000000101000000000000000000000000
0000000000000000000000000000000000000000000000000000000000000000
0000000001000000000010000000000000000000000000000100000000000000
